# xmcd
#
# Track frame offsets: 
#        150
#        25355
#        36018
#        72600
#        103159
#        134691
#        168223
#        177673
#        213801
#        234770
#
# Disc length: 3271 seconds
#
# Revision: 1
# Processed by: cddbd v1.5.2PL0 Copyright (c) Steve Scherf et al.
# Submitted via: ExactAudioCopy v0.99pb3
#
DISCID=8c0cc50a
DTITLE=Mats Eilertsen - Rubicon
DYEAR=2016
DGENRE=Jazz
TTITLE0=Canto
TTITLE1=Cross the Creek
TTITLE2=March
TTITLE3=Balky
TTITLE4=Lago
TTITLE5=BluBlue
TTITLE6=Wood and Water
TTITLE7=September
TTITLE8=Reminiscent
TTITLE9=Introitus
EXTD=YEAR: 2016
EXTT0=
EXTT1=
EXTT2=
EXTT3=
EXTT4=
EXTT5=
EXTT6=
EXTT7=
EXTT8=
EXTT9=
PLAYORDER=
